<svg id="pfade" xmlns="http://www.w3.org/2000/svg" viewBox="0 0 80 80">
  <defs>
    <style>
      .cls-1 {
        fill: none;
        stroke: #ffffff;
        stroke-miterlimit: 10;
        stroke-width: 2px;
      }
    </style>
  </defs>
  <path class="cls-1" d="M61.4947,38.3606c0,3.7341-4.8125,6.7609-10.7488,6.7609-5.9362,0-10.7486-3.0268-10.7486-6.7609"/>
  <path class="cls-1" d="M61.4947,46.5146c0,3.7341-4.8125,6.761-10.7488,6.761-5.9362,0-10.7486-3.0269-10.7486-6.761"/>
  <path class="cls-1" d="M61.4947,30.2063c0,3.7339-4.8125,6.7612-10.7488,6.7612-5.9362,0-10.7486-3.0273-10.7486-6.7612"/>
  <path class="cls-1" d="M39.9973,46.5146c0,3.7341-4.8123,6.761-10.7487,6.761-5.9362,0-10.7486-3.0269-10.7486-6.761"/>
  <path class="cls-1" d="M61.4947,22.3444v32.324c0,3.7339-4.8125,6.7615-10.7488,6.7615-5.9362,0-10.7486-3.0276-10.7486-6.7615V22.3444"/>
  <path class="cls-1" d="M39.9973,38.3606c0,3.7336-4.8123,6.7609-10.7487,6.7609-5.9363,0-10.7486-3.0273-10.7486-6.7609,0-3.7339,4.8123-6.761,10.7486-6.761C35.185,31.5996,39.9973,34.6267,39.9973,38.3606Z"/>
  <path class="cls-1" d="M39.9973,38.3606V54.6684c0,3.7339-4.8123,6.7615-10.7487,6.7615-5.9363,0-10.7486-3.0276-10.7486-6.7615V38.3606"/>
  <path class="cls-1" d="M61.4947,22.0522c0,3.7341-4.8125,6.761-10.7488,6.761-5.9362,0-10.7486-3.0269-10.7486-6.761,0-3.7339,4.8124-6.7602,10.7486-6.7602C56.6822,15.292,61.4947,18.3183,61.4947,22.0522Z"/>
</svg>
